<?xml version="1.0" encoding="utf-8"?>
<!-- Generator: Adobe Illustrator 22.1.0, SVG Export Plug-In . SVG Version: 6.00 Build 0)  -->
<svg version="1.1" id="Calque_1" xmlns="http://www.w3.org/2000/svg" xmlns:xlink="http://www.w3.org/1999/xlink" x="0px" y="0px"
	 viewBox="0 0 129 129" style="enable-background:new 0 0 129 129;" xml:space="preserve">
<style type="text/css">
	.st0{fill:#ED2929;}
</style>
<g>
	<path class="st0" d="M121.6,40.1c-3.3-16.6-15.1-27.3-30.3-27.3c-8.5,0-17.7,3.5-26.7,10.1c-9.1-6.8-18.3-10.3-26.9-10.3
		c-15.2,0-27.1,10.8-30.3,27.6c-4.8,24.9,10.6,58,55.7,76c0.5,0.2,1,0.3,1.5,0.3s1-0.1,1.5-0.3C111.1,97.8,126.4,64.8,121.6,40.1z
		 M64.6,108C25,91.6,11.3,63,15.4,41.7c2.4-12.7,11.2-21,22.3-21c7.5,0,15.9,3.6,24.3,10.5c1.5,1.2,3.6,1.2,5.1,0
		C75.5,24.5,83.8,21,91.3,21c11.1,0,19.8,8.1,22.3,20.7C117.7,62.8,104.1,91.3,64.6,108z"/>
	<path class="st0" d="M12.5,36.3c0,0,13.5-38,52-8c0,0,47-37.5,53.5,19.5c0,0-8,50.5-52.8,64C65.3,111.8,5.5,91.8,12.5,36.3z"/>
</g>
</svg>
